<svg width="80" height="80" viewBox="0 0 80 80" fill="none" xmlns="http://www.w3.org/2000/svg">
<path d="M17.9998 43.999C19.8876 44.1088 21.7324 43.4063 23.0697 42.069C24.4063 40.7317 25.1089 38.8869 24.9997 36.9991C25.1088 35.1113 24.4064 33.2666 23.0697 31.9292C21.7324 30.5919 19.8876 29.8896 17.9998 29.9993C16.1113 29.8895 14.2673 30.5919 12.9299 31.9292C11.5926 33.2666 10.8903 35.1113 10.9993 36.9991C10.8901 38.8869 11.5926 40.7317 12.9299 42.069C14.2673 43.4063 16.1115 44.1087 17.9998 43.999ZM17.9998 33.9991C18.8222 33.8966 19.6465 34.1792 20.233 34.7658C20.819 35.3518 21.1022 36.1761 20.9998 36.9991C21.1023 37.8221 20.819 38.6464 20.233 39.2323C19.6464 39.8189 18.8221 40.1015 17.9998 39.9991C17.1768 40.1015 16.3525 39.8189 15.7666 39.2323C15.18 38.6463 14.8967 37.822 14.9998 36.9991C14.8967 36.1761 15.18 35.3517 15.7666 34.7658C16.3526 34.1792 17.1769 33.8966 17.9998 33.9991ZM51.0002 63.9994C52.888 64.1085 54.7327 63.4061 56.07 62.0694C57.4067 60.7321 58.1092 58.8873 58 56.9995C58.1092 55.1111 57.4067 53.267 56.07 51.9297C54.7327 50.5924 52.888 49.89 51.0002 49.999C49.1117 49.8899 47.2676 50.5923 45.9303 51.9297C44.593 53.267 43.8906 55.1112 43.9996 56.9995C43.8905 58.8873 44.5929 60.7321 45.9303 62.0694C47.2676 63.4061 49.1119 64.1086 51.0002 63.9994ZM51.0002 53.9995C51.8225 53.8964 52.6468 54.1797 53.2334 54.7663C53.8193 55.3522 54.1026 56.1766 54.0001 56.9995C54.1026 57.8218 53.8193 58.6462 53.2334 59.2327C52.6468 59.8187 51.8224 60.1019 51.0002 59.9995C50.1772 60.1019 49.3528 59.8187 48.7669 59.2327C48.1803 58.6461 47.8971 57.8218 48.0002 56.9995C47.8971 56.1765 48.1803 55.3522 48.7669 54.7663C49.3529 54.1797 50.1772 53.8964 51.0002 53.9995ZM75.9998 43.999H36V11.9998C36 10.9384 35.5781 9.92119 34.8281 9.17118C34.0781 8.42117 33.0609 7.9993 31.9995 7.9993H3.99981C2.93909 7.9993 1.92122 8.42117 1.17121 9.17118C0.421204 9.92119 0 10.9385 0 11.9998V60.0003C0 61.061 0.421204 62.0782 1.17121 62.8282C1.92122 63.5789 2.939 64.0001 3.99981 64.0001H22V76.0002C22 77.0609 22.4212 78.0788 23.1719 78.8288C23.9219 79.5788 24.9392 80 25.9998 80H76.0009C77.0616 80 78.0795 79.5788 78.8295 78.8288C79.5795 78.0788 80.0007 77.061 80.0007 76.0002V48.0005C80.0007 46.9391 79.5795 45.9219 78.8295 45.1719C78.0795 44.4219 77.0617 44 76.0009 44L75.9998 43.999ZM3.99911 11.9998H31.9988V60.0003H29.9993V55.9998C29.9993 49.8317 25.3994 45.9999 17.9991 45.9999C10.5988 45.9999 5.99902 49.8317 5.99902 55.9998V59.9996L3.99877 60.0003L3.99911 11.9998ZM25.9988 60.0003H9.99883V55.9998C9.99883 51.0417 14.3489 49.9997 17.9991 49.9997C21.6494 49.9997 25.9995 51.0417 25.9995 55.9998L25.9988 60.0003ZM43.9989 76.0002C43.9989 71.0421 47.7992 70.0001 50.9988 70.0001C54.1991 70.0001 57.9986 71.0421 57.9986 76.0002H43.9989ZM75.9998 76.0002H61.9995C61.9995 69.8321 57.7854 66.0003 50.9991 66.0003C44.2136 66.0003 39.9995 69.8321 39.9995 76.0002H25.9991V64.0001H31.9992C33.0606 64.0001 34.0778 63.5789 34.8278 62.8282C35.5778 62.0782 35.9996 61.0609 35.9996 60.0003V48.0002H75.9995L75.9998 76.0002ZM43.9989 36.0004L51.8433 34.1006L52.4433 34.3564C54.7931 35.5035 57.3853 36.0673 59.9996 36.0004C71.7753 36.0004 80.0003 28.6001 80.0003 18.0002C79.9997 7.39962 71.7756 0 59.9996 0C48.2232 0 39.9988 7.39962 39.9988 18.0002C40.0396 21.6733 41.2644 25.2357 43.491 28.1581L38.261 36.0004H43.9989ZM59.9996 3.99947C67.9637 3.99947 75.9995 8.32946 75.9995 17.9998C75.9995 27.6702 67.9637 32.0002 59.9996 32.0002V31.9995C57.9237 32.0678 55.8645 31.6118 54.0115 30.6736C53.6238 30.5076 53.2113 30.3334 52.7532 30.148L52.1532 29.9022L46.1371 31.4062L48.5772 27.7458L47.4174 26.586V26.5853C45.2531 24.2462 44.035 21.186 43.9989 17.9998C43.9989 8.32939 52.0354 3.9994 59.9995 3.9994L59.9996 3.99947ZM65.9996 17.9998C65.9996 17.1909 66.4865 16.4616 67.2338 16.1517C67.9811 15.8423 68.8416 16.0137 69.4135 16.5856C69.9854 17.1574 70.1568 18.018 69.8475 18.7653C69.5374 19.5126 68.8082 19.9995 67.9993 19.9995C66.895 19.9995 65.9997 19.1041 65.9997 17.9999L65.9996 17.9998ZM57.9993 17.9998C57.9993 17.1909 58.4868 16.4616 59.2341 16.1517C59.9815 15.8423 60.8413 16.0137 61.4139 16.5856C61.9858 17.1574 62.1565 18.018 61.8471 18.7653C61.5378 19.5126 60.8085 19.9995 59.9996 19.9995C58.8947 19.9995 57.9994 19.1041 57.9994 17.9999L57.9993 17.9998ZM49.999 17.9998C49.999 17.1909 50.4865 16.4616 51.2338 16.1517C51.9812 15.8423 52.8417 16.0137 53.4136 16.5856C53.9855 17.1574 54.1569 18.018 53.8468 18.7653C53.5374 19.5126 52.8082 19.9995 51.9993 19.9995C50.8951 19.9995 49.9991 19.1041 49.9991 17.9999L49.999 17.9998ZM21.9993 17.9998H13.999V13.9993H21.9993V17.9998Z" fill="white"/>
</svg>
